<?xml version="1.0" encoding="UTF-8" standalone="no"?>
<!-- Created with Inkscape (http://www.inkscape.org/) -->

<svg
   xmlns:dc="http://purl.org/dc/elements/1.1/"
   xmlns:cc="http://creativecommons.org/ns#"
   xmlns:rdf="http://www.w3.org/1999/02/22-rdf-syntax-ns#"
   xmlns:svg="http://www.w3.org/2000/svg"
   xmlns="http://www.w3.org/2000/svg"
   xmlns:sodipodi="http://sodipodi.sourceforge.net/DTD/sodipodi-0.dtd"
   xmlns:inkscape="http://www.inkscape.org/namespaces/inkscape"
   width="177.285mm"
   height="153.382mm"
   viewBox="0 0 177.285 153.382"
   version="1.1"
   id="svg8"
   sodipodi:docname="logo_plain_svg.svg"
   inkscape:version="0.92.2 (5c3e80d, 2017-08-06)">
  <defs
     id="defs2">
    <inkscape:path-effect
       effect="powerstroke"
       id="path-effect4750"
       is_visible="true"
       offset_points="0.014759741,3.9591366"
       sort_points="true"
       interpolator_type="CubicBezierJohan"
       interpolator_beta="0.2"
       start_linecap_type="zerowidth"
       linejoin_type="extrp_arc"
       miter_limit="4"
       end_linecap_type="zerowidth" />
    <inkscape:path-effect
       effect="skeletal"
       id="path-effect4746"
       is_visible="true"
       pattern="m -56.664025,57.058458 c 0,-2.76 2.24,-5 5,-5 2.76,0 5,2.24 5,5 0,2.76 -2.24,5 -5,5 -2.76,0 -5,-2.24 -5,-5 z"
       copytype="single_stretched"
       prop_scale="0.45847624"
       scale_y_rel="false"
       spacing="0"
       normal_offset="0"
       tang_offset="0"
       prop_units="false"
       vertical_pattern="false"
       fuse_tolerance="0" />
    <inkscape:path-effect
       effect="skeletal"
       id="path-effect4716"
       is_visible="true"
       pattern="m 9.9239986,6.8377775 c 0,-2.76 2.2400004,-5 5.0000004,-5 2.76,0 5,2.24 5,5 0,2.76 -2.24,5.0000005 -5,5.0000005 -2.76,0 -5.0000004,-2.2400005 -5.0000004,-5.0000005 z"
       copytype="single_stretched"
       prop_scale="0.47017039"
       scale_y_rel="false"
       spacing="0"
       normal_offset="0"
       tang_offset="0"
       prop_units="false"
       vertical_pattern="false"
       fuse_tolerance="0" />
    <inkscape:path-effect
       effect="skeletal"
       id="path-effect4712"
       is_visible="true"
       pattern="m -15.437331,-0.88088808 c 0,-2.76000002 2.24,-5.00000002 5,-5.00000002 2.7599998,0 4.9999998,2.24 4.9999998,5.00000002 0,2.75999998 -2.24,4.99999998 -4.9999998,4.99999998 -2.76,0 -5,-2.24 -5,-4.99999998 z"
       copytype="single_stretched"
       prop_scale="0.37359509"
       scale_y_rel="false"
       spacing="0"
       normal_offset="0"
       tang_offset="0"
       prop_units="false"
       vertical_pattern="false"
       fuse_tolerance="0" />
    <inkscape:path-effect
       effect="skeletal"
       id="path-effect40"
       is_visible="true"
       pattern="m -59.522936,25.610438 c 0,-2.76 2.24,-5 5,-5 2.76,0 5,2.24 5,5 0,2.76 -2.24,5 -5,5 -2.76,0 -5,-2.24 -5,-5 z"
       copytype="single_stretched"
       prop_scale="0.5083425"
       scale_y_rel="false"
       spacing="0"
       normal_offset="0"
       tang_offset="0"
       prop_units="false"
       vertical_pattern="false"
       fuse_tolerance="0" />
    <inkscape:path-effect
       effect="skeletal"
       id="path-effect36"
       is_visible="true"
       pattern="m -59.522936,25.610438 c 0,-2.76 2.24,-5 5,-5 2.76,0 5,2.24 5,5 0,2.76 -2.24,5 -5,5 -2.76,0 -5,-2.24 -5,-5 z"
       copytype="single_stretched"
       prop_scale="0.56975659"
       scale_y_rel="false"
       spacing="0"
       normal_offset="0"
       tang_offset="0"
       prop_units="false"
       vertical_pattern="false"
       fuse_tolerance="0" />
    <inkscape:path-effect
       effect="skeletal"
       id="path-effect32"
       is_visible="true"
       pattern="m -59.522936,25.610438 c 0,-2.76 2.24,-5 5,-5 2.76,0 5,2.24 5,5 0,2.76 -2.24,5 -5,5 -2.76,0 -5,-2.24 -5,-5 z"
       copytype="single_stretched"
       prop_scale="0.56761547"
       scale_y_rel="false"
       spacing="0"
       normal_offset="0"
       tang_offset="0"
       prop_units="false"
       vertical_pattern="false"
       fuse_tolerance="0" />
    <inkscape:path-effect
       effect="skeletal"
       id="path-effect28"
       is_visible="true"
       pattern="m -59.522936,25.610438 c 0,-2.76 2.24,-5 5,-5 2.76,0 5,2.24 5,5 0,2.76 -2.24,5 -5,5 -2.76,0 -5,-2.24 -5,-5 z"
       copytype="single_stretched"
       prop_scale="0.59494944"
       scale_y_rel="false"
       spacing="0"
       normal_offset="0"
       tang_offset="0"
       prop_units="false"
       vertical_pattern="false"
       fuse_tolerance="0" />
    <inkscape:path-effect
       effect="skeletal"
       id="path-effect24"
       is_visible="true"
       pattern="m -59.522936,25.610438 c 0,-2.76 2.24,-5 5,-5 2.76,0 5,2.24 5,5 0,2.76 -2.24,5 -5,5 -2.76,0 -5,-2.24 -5,-5 z"
       copytype="single_stretched"
       prop_scale="0.57646453"
       scale_y_rel="false"
       spacing="0"
       normal_offset="0"
       tang_offset="0"
       prop_units="false"
       vertical_pattern="false"
       fuse_tolerance="0" />
  </defs>
  <sodipodi:namedview
     id="base"
     pagecolor="#ffffff"
     bordercolor="#666666"
     borderopacity="1.0"
     inkscape:pageopacity="0.0"
     inkscape:pageshadow="2"
     inkscape:zoom="0.71984593"
     inkscape:cx="160.6783"
     inkscape:cy="488.04101"
     inkscape:document-units="mm"
     inkscape:current-layer="layer3"
     showgrid="false"
     inkscape:snap-global="false"
     inkscape:window-width="1920"
     inkscape:window-height="1001"
     inkscape:window-x="-9"
     inkscape:window-y="-9"
     inkscape:window-maximized="1"
     inkscape:pagecheckerboard="true" />
  <metadata
     id="metadata5">
    <rdf:RDF>
      <cc:Work
         rdf:about="">
        <dc:format>image/svg+xml</dc:format>
        <dc:type
           rdf:resource="http://purl.org/dc/dcmitype/StillImage" />
        <dc:title></dc:title>
      </cc:Work>
    </rdf:RDF>
  </metadata>
  <g
     inkscape:groupmode="layer"
     id="layer2"
     inkscape:label="Layer 2"
     style="display:inline"
     transform="translate(0,-56.618)" />
  <g
     inkscape:groupmode="layer"
     id="layer3"
     inkscape:label="Layer 3"
     transform="translate(0,-56.618)">
    <path
       style="display:inline;fill:#ffffff;stroke:none;stroke-width:0.26458332px;stroke-linecap:butt;stroke-linejoin:miter;stroke-opacity:1;fill-opacity:1"
       inkscape:path-effect="#path-effect24"
       inkscape:original-d="m 32.222112,113.9149 c -11.77356,7.99388 -25.90681,15.92056 -30.10502,30.55725 -0.952866,13.68367 12.678879,24.14567 25.462296,24.43727 22.498867,3.50191 45.547407,1.64679 67.819827,-2.49721 25.633885,-5.93022 51.242725,-16.11041 70.544915,-34.49005 7.72854,-8.7292 6.53583,-24.90002 -4.60672,-30.25252 -5.78242,-3.556698 -12.5716,-4.874393 -19.17717,-5.947801"
       id="path22"
       d="m 32.222112,113.9149 c 0.317191,0.46717 -6.915463,4.66219 -16.884861,13.94675 10e-7,0 -4e-6,0 -4e-6,0 -4.216201,3.9095 -9.3272955,9.75905 -11.1858647,16.96897 -0.1264689,2.7217 0.4574068,5.60784 1.7880183,8.24792 1.2097916,2.51958 3.0550314,4.84715 5.3523194,6.84802 4.34042,3.71247 10.279283,6.31525 16.518792,6.3813 18.106525,2.66321 37.502851,2.02185 58.908986,-1.33418 2.721907,-0.42674 5.421353,-0.8885 8.092243,-1.37775 29.977009,-6.93461 52.825069,-17.80889 69.495789,-33.25209 3.73562,-4.00648 4.96154,-9.76876 4.47578,-14.57258 -0.28538,-2.76896 -1.11958,-5.30284 -2.39891,-7.3981 -1.49694,-2.43777 -3.58377,-4.26828 -5.75393,-5.40833 -4.67859,-3.147851 -10.54603,-4.738118 -13.38488,-5.533258 -3.33968,-0.935418 -5.13355,-1.413191 -5.08536,-1.709734 0.0377,-0.232117 1.90951,-0.283886 5.37857,0.163514 3.04759,0.393045 9.00467,1.381116 14.50555,4.489098 2.68065,1.19012 5.30767,3.21825 7.26085,6.10667 1.69186,2.49155 2.87276,5.50004 3.34635,8.8069 0.83527,5.76844 -0.42499,12.75238 -5.07082,18.21246 -16.97773,16.59596 -40.84273,28.61355 -71.594041,35.72801 -2.70668,0.5113 -5.446286,0.9907 -8.213381,1.43054 -21.740979,3.45577 -41.761069,3.91185 -60.425044,0.85195 -7.524746,-0.24794 -14.334666,-3.4654 -19.2457164,-8.01192 -2.6936037,-2.45448 -4.8320492,-5.36242 -6.2501182,-8.53308 -1.52892665,-3.55176 -2.07901379,-7.31519 -1.76962693,-10.85231 2.64510213,-8.48894 8.47116253,-14.66632 13.23764153,-18.57038 0,0 5e-6,-1e-5 5e-6,-1e-5 11.023901,-8.98025 19.05932,-11.39618 18.901663,-11.62838 z"
       inkscape:connector-curvature="0" />
    <path
       style="display:inline;fill:#ffffff;stroke:none;stroke-width:0.26458332px;stroke-linecap:butt;stroke-linejoin:miter;stroke-opacity:1;fill-opacity:1"
       inkscape:path-effect="#path-effect28"
       inkscape:original-d="m 94.338445,70.771334 c -10.8846,-8.280683 -25.90371,-13.022067 -39.14153,-7.952299 -11.74714,6.173945 -20.666164,18.600232 -20.315413,32.199348 -0.09285,3.543635 -0.789055,7.049907 -1.099983,10.579677"
       id="path26"
       d="m 94.338445,70.771334 c -0.630083,0.828217 -7.575641,-4.38342 -19.256201,-6.559515 -5.52409,-1.041954 -12.364919,-1.202437 -18.667172,1.300075 -1.198559,0.641352 -2.37835,1.355948 -3.530038,2.143115 -4.14477,2.832906 -7.510278,6.316885 -10.038615,10.014772 -4.220672,6.166468 -5.796113,12.371771 -6.066642,17.348991 0,0 0,10e-7 0,2e-6 -0.702234,6.908966 -2.745187,10.601576 -2.998258,10.579286 -1.206215,-0.10625 -0.416424,-4.19222 -0.798292,-10.580063 0,0 0,-3e-6 0,-3e-6 -0.542747,-5.630501 0.55749,-13.094471 5.175353,-20.419236 2.812856,-4.455541 6.710346,-8.638991 11.625395,-11.974736 1.364043,-0.925748 2.766406,-1.758561 4.194783,-2.497846 7.976077,-2.965196 16.010171,-2.474358 22.239273,-0.760464 13.247325,3.685577 18.3861,11.05639 18.120414,11.405622 z"
       inkscape:connector-curvature="0" />
    <path
       style="display:inline;fill:#ffffff;stroke:none;stroke-width:0.26458332px;stroke-linecap:butt;stroke-linejoin:miter;stroke-opacity:1;fill-opacity:1"
       inkscape:path-effect="#path-effect32"
       inkscape:original-d="m 97.197355,68.952027 c 5.752495,-4.136087 11.044575,-10.306748 18.873855,-9.641222 10.00675,-0.381559 18.04936,7.82279 21.71005,16.458422 2.0385,4.746431 2.22158,9.931776 2.03969,15.014528"
       id="path30"
       d="m 97.197355,68.952027 c -0.19236,-0.267535 1.979757,-4.142643 7.504155,-8.384888 2.6014,-2.052028 6.57328,-4.116855 11.43189,-3.920059 4.07538,-0.225459 8.30403,0.85917 12.09723,3.217561 1.0287,0.63959 1.99052,1.351932 2.87816,2.119094 4.50258,3.80631 7.31409,8.540719 8.87487,12.845751 1.68934,4.687012 1.57608,9.107451 1.2624,11.70385 -0.33461,2.769636 -0.95728,4.267167 -1.42511,4.250426 -0.52859,-0.01892 -0.87715,-1.560826 -1.36137,-4.175872 -0.43469,-2.347564 -1.10967,-6.503928 -2.88072,-9.898922 -1.76332,-3.539306 -4.3818,-7.387241 -8.07563,-10.375564 -0.73414,-0.577182 -1.51474,-1.121091 -2.33293,-1.616471 -3.01616,-1.826176 -6.18493,-2.78598 -9.16128,-2.742403 -3.12484,-0.478753 -6.50746,0.836044 -8.99955,2.119953 -5.69394,3.058641 -9.015163,5.965949 -9.812115,4.857544 z"
       inkscape:connector-curvature="0" />
    <path
       style="display:inline;fill:#ffffff;stroke:none;stroke-width:0.26458332px;stroke-linecap:butt;stroke-linejoin:miter;stroke-opacity:1;fill-opacity:1"
       d="m 35.600825,107.93717 c 0.344032,-1.08729 13.120305,2.2889 31.868187,4.49399 7.098004,0.83157 15.056698,1.52077 23.412286,1.64099 2.864905,0.0412 5.663734,0.0141 8.406305,-0.0806 10.598697,-0.39503 18.668087,-1.51089 26.015017,-4.11003 3.82854,-1.35738 6.69588,-2.8502 9.04279,-4.58579 4.49819,-3.32106 5.96575,-6.661445 6.51531,-6.455137 0.27434,0.102988 0.36917,4.076047 -4.43699,8.851977 -2.33247,2.31872 -5.44514,4.46047 -9.48983,6.25817 -7.64479,3.40646 -16.54895,5.15851 -27.409193,5.66734 -2.848873,0.14094 -5.75719,0.19159 -8.724928,0.14932 -8.669319,-0.12347 -16.837257,-1.02628 -24.056077,-2.22748 -19.187812,-3.18391 -31.466729,-8.57928 -31.142877,-9.60279 z"
       id="path34"
       inkscape:connector-curvature="0"
       inkscape:path-effect="#path-effect36"
       inkscape:original-d="m 35.600825,107.93717 c 38.64144,12.22665 96.419475,14.45268 105.259895,-9.096531"
       sodipodi:nodetypes="cc" />
    <path
       style="display:inline;fill:#ffffff;stroke:none;stroke-width:0.26458332px;stroke-linecap:butt;stroke-linejoin:miter;stroke-opacity:1;fill-opacity:1"
       d="m 31.962211,131.32827 c 0.334783,-0.61647 6.556919,2.36187 16.945947,5.89977 10.304956,3.50927 25.115893,7.48314 41.371142,6.51668 1.266946,-0.0753 2.523127,-0.17934 3.768693,-0.31177 9.924077,-1.02184 18.908067,-3.72043 26.417117,-6.77841 15.84991,-6.45211 25.30556,-13.59639 25.85353,-12.8634 0.26592,0.3557 -7.80189,9.1749 -24.11442,16.82978 -7.67062,3.59794 -17.06203,6.7035 -27.620497,7.85684 -1.327259,0.14079 -2.665098,0.24906 -4.013039,0.32439 -17.37568,0.97105 -32.686539,-3.72837 -42.96881,-8.20705 -10.397858,-4.52904 -15.902737,-8.7824 -15.639663,-9.26683 z"
       id="path38"
       inkscape:connector-curvature="0"
       inkscape:path-effect="#path-effect40"
       inkscape:original-d="m 31.962211,131.32827 c 46.002284,24.98203 82.155299,16.53591 114.356429,-7.53713"
       sodipodi:nodetypes="cc" />
    <path
       style="fill:#ffffff;fill-opacity:1;stroke-width:0.31201372"
       d="M 32.030092,169.11073 A 17.064761,19.817124 0 0 0 14.96553,188.92762 17.064761,19.817124 0 0 0 32.030092,208.74518 17.064761,19.817124 0 0 0 49.095225,188.92762 17.064761,19.817124 0 0 0 32.030092,169.11073 Z m 0,4.6239 a 13.082983,15.193128 0 0 1 13.082883,15.19299 13.082983,15.193128 0 0 1 -13.082883,15.19366 13.082983,15.193128 0 0 1 -13.082865,-15.19366 13.082983,15.193128 0 0 1 13.082865,-15.19299 z"
       id="path1014"
       inkscape:connector-curvature="0" />
    <path
       inkscape:connector-curvature="0"
       id="path4708"
       d="m 86.589045,170.3656 c -9.42445,1.3e-4 -17.06445,8.87238 -17.06456,19.81689 -2.1e-4,10.94477 7.63988,19.81743 17.06456,19.81756 9.4249,2.4e-4 17.065345,-8.87252 17.065145,-19.81756 -4e-5,-3.82704 -0.93423,-7.40069 -2.55222,-10.43022 -3.009235,-5.63448 -8.383755,-9.38683 -14.512925,-9.38667 z m 0,4.6239 c 7.22545,7e-5 13.08281,6.80216 13.08288,15.19299 2.5e-4,8.39109 -5.85721,15.19359 -13.08288,15.19366 -7.22566,-8e-5 -13.08311,-6.80258 -13.08286,-15.19366 7e-5,-8.39082 5.85742,-15.19291 13.08286,-15.19299 z"
       style="fill:#ffffff;fill-opacity:1;stroke-width:0.31201372"
       sodipodi:nodetypes="ccccscccccc" />
    <path
       style="fill:#ffffff;stroke:none;stroke-width:0.26458332px;stroke-linecap:butt;stroke-linejoin:miter;stroke-opacity:1;fill-opacity:1"
       d="m 47.569335,189.83752 c -0.260029,-0.55122 0.728776,-1.74562 2.899809,-2.84212 2.196835,-1.10953 5.376283,-1.9788 9.123026,-1.91258 0.343719,0.006 0.683857,0.0199 1.019917,0.0411 0,0 10e-7,0 10e-7,0 6.988882,0.43895 11.365465,3.53424 11.025789,4.52988 -0.419173,1.22867 -5.350883,0.21574 -11.24378,0.0363 0,0 -1e-6,0 -1e-6,0 -0.289701,-0.009 -0.58221,-0.0154 -0.877471,-0.0199 -3.33624,-0.0503 -5.808833,0.19491 -8.108511,0.42192 -2.106831,0.20797 -3.562845,0.33036 -3.838779,-0.25458 z"
       id="path4744"
       inkscape:connector-curvature="0"
       inkscape:path-effect="#path-effect4746"
       inkscape:original-d="m 47.569335,189.83752 c 8.67856,-4.09396 17.78861,-2.32624 24.06854,-0.18377"
       sodipodi:nodetypes="cc" />
    <path
       style="fill:#ffffff;fill-rule:nonzero;stroke:none;stroke-width:0.26458332px;stroke-linecap:butt;stroke-linejoin:miter;stroke-opacity:1;fill-opacity:1"
       d="m 101.20105,189.46625 c 0.3156,-0.0472 1.90903,3.7077 2.23961,3.65173 5.65571,-0.95749 13.34125,-3.07476 22.45179,-7.16479 9.10317,-4.08672 18.23066,-9.51839 26.52581,-15.71452 7.23736,-5.406 12.99669,-10.76272 17.07421,-15.34863 2.31886,-2.60798 4.00697,-4.86531 5.20692,-6.7502 1.57863,-2.47973 2.24492,-4.20354 2.58565,-5.35314 -0.34233,1.15501 -1.20819,2.7935 -3.04465,5.02003 -1.39479,1.69105 -3.32381,3.68832 -5.8771,5.95444 -4.48624,3.98166 -10.68358,8.59363 -18.1994,13.13308 -8.66906,5.236 -17.83277,9.61953 -26.78835,12.84036 -8.98241,3.23047 -16.05042,4.6948 -21.25662,5.57619 -0.30116,0.051 -0.60227,4.10821 -0.91787,4.15545 z"
       id="path4748"
       inkscape:connector-curvature="0"
       inkscape:path-effect="#path-effect4750"
       inkscape:original-d="m 101.20105,189.46625 c 35.6376,-5.33419 72.57448,-34.83873 76.08399,-46.67955"
       sodipodi:nodetypes="cc" />
  </g>
</svg>
